<svg xmlns="http://www.w3.org/2000/svg" width="40" height="40" viewBox="0 0 40 40"><defs><clipPath id="8dqja"><path fill="#fff" d="M0 0h40v40H0z"/></clipPath></defs><g><g><path fill="#8f8e91" d="M26.212 30.92v-7.764c0-1.592-.46-3.186-2.335-3.186s-2.659 1.594-2.659 3.225v7.726h-5.002V16.704h5.002v1.914c1.316-1.672 2.46-2.362 4.533-2.362 2.076 0 5.449.968 5.449 6.583v8.082zM11.594 14.597c-1.544 0-2.794-1.122-2.794-2.507 0-1.386 1.25-2.51 2.794-2.51 1.542 0 2.792 1.124 2.792 2.51 0 1.385-1.25 2.507-2.792 2.507zm2.495 16.325H9.08V16.704h5.01z"/></g><g><path fill="none" stroke="#8f8e91" stroke-miterlimit="50" stroke-width="4" d="M0 0v0h40v40H0v0z" clip-path="url(&quot;#8dqja&quot;)"/></g></g></svg>